<svg xmlns="http://www.w3.org/2000/svg" width="512" height="512" viewBox="0 0 135.467 135.467"><path d="M135.467 67.733a67.733 67.733 0 0 1-67.734 67.734A67.733 67.733 0 0 1 0 67.733 67.733 67.733 0 0 1 67.733 0a67.733 67.733 0 0 1 67.734 67.733z" fill="#e7cecb"/><g style="line-height:1.25;-inkscape-font-specification:'Open Sans';text-align:center"><path style="-inkscape-font-specification:'Passion One'" d="M66.64 20.045c-12.735 0-21.922 3.646-27.56 10.937-5.542 7.291-8.313 18.86-8.313 34.706 0 15.846 2.771 27.803 8.312 35.872 5.542 7.972 14.388 11.958 26.54 11.958l15.603 9.04c5.416 3.176 11.507 4.822 18.269 4.947a67.733 67.733 0 0 0 3.791-2.175l1.418-16.624-18.374-1.605v-.583c5.444-4.18 9.43-9.478 11.957-15.895 2.625-6.513 3.938-14.922 3.938-25.227 0-15.846-2.771-27.366-8.313-34.56-5.444-7.194-14.533-10.79-27.268-10.79zm-.292 23.04c4.375 0 7.242 1.604 8.603 4.812 1.459 3.111 2.188 9.139 2.188 18.082v4.667c0 8.846-.632 14.68-1.896 17.499-1.263 2.819-4.083 4.228-8.457 4.228-4.278 0-7.146-1.458-8.604-4.374-1.361-3.014-2.042-9.236-2.042-18.666v-3.5c0-8.846.632-14.825 1.896-17.936 1.264-3.208 4.034-4.812 8.312-4.812z" font-size="50.8" font-family="Passion One" fill="#a33a83" aria-label="Q" font-weight="400" letter-spacing="0" word-spacing="0" text-anchor="middle" stroke-width=".265"/></g></svg>